<svg width="20" height="20" viewBox="0 0 20 20" fill="none" xmlns="http://www.w3.org/2000/svg">
<path fill-rule="evenodd" clip-rule="evenodd" d="M16.8392 5.66083C16.9954 5.8171 17.0832 6.02902 17.0832 6.24999C17.0832 6.47097 16.9954 6.68289 16.8392 6.83916L8.92251 14.7558C8.76624 14.9121 8.55432 14.9998 8.33335 14.9998C8.11238 14.9998 7.90045 14.9121 7.74418 14.7558L3.99418 11.0058C3.84238 10.8487 3.75839 10.6382 3.76029 10.4197C3.76218 10.2012 3.84983 9.99215 4.00433 9.83765C4.15884 9.68314 4.36785 9.5955 4.58635 9.5936C4.80484 9.5917 5.01535 9.6757 5.17251 9.8275L8.33335 12.9883L15.6608 5.66083C15.8171 5.5046 16.029 5.41684 16.25 5.41684C16.471 5.41684 16.6829 5.5046 16.8392 5.66083Z" fill="#F2F2F2" fill-opacity="1"/>
</svg>
