<svg width="25" height="24" viewBox="0 0 25 24" fill="none" xmlns="http://www.w3.org/2000/svg">
<path d="M22.4834 10.4127L8.97594 2.15051C8.69267 1.97782 8.36865 1.88338 8.03696 1.87683C7.70526 1.87028 7.37777 1.95186 7.08791 2.11323C6.79804 2.27461 6.55618 2.51 6.38702 2.79539C6.21785 3.08078 6.12744 3.40594 6.125 3.73769V20.2621C6.12744 20.5938 6.21785 20.919 6.38702 21.2044C6.55618 21.4898 6.79804 21.7252 7.08791 21.8865C7.37777 22.0479 7.70526 22.1295 8.03696 22.1229C8.36865 22.1164 8.69267 22.0219 8.97594 21.8493L22.4834 13.5871C22.7558 13.4213 22.9809 13.1882 23.1371 12.9102C23.2934 12.6322 23.3754 12.3187 23.3754 11.9999C23.3754 11.681 23.2934 11.3675 23.1371 11.0896C22.9809 10.8116 22.7558 10.5785 22.4834 10.4127ZM8.375 19.5796V4.42019L20.765 11.9999L8.375 19.5796Z" fill="white"/>
</svg>
